<?xml version="1.0"?>
<svg width="60" height="60" xmlns="http://www.w3.org/2000/svg" xmlns:svg="http://www.w3.org/2000/svg">
    <symbol id="aether_symbol" width="60" height="60" viewBox="0 0 60 60">
        <path d="M 15 35 c -2 -3 -2 -10 5 -10 s 13 10 20 10 7 -7 5 -10" class="noFill" stroke-width="3" />
    </symbol>
    <symbol id="aerolith_symbol" width="60" height="60" viewBox="0 0 60 60">
        <path d="M 10 37.93 a 14.14 14.14 0 0 0 20 -20 14.14 14.14 0 0 0 20 20" class="noFill" stroke-width="3" />
    </symbol>
    <symbol id="air_symbol" width="60" height="60" viewBox="0 0 60 60">
        <use href="#fire_symbol" />
        <line x1="10" y1="30" x2="50" y2="30" stroke-width="3" />
    </symbol>
    <symbol id="alpha_symbol" width="60" height="60" viewBox="0 0 60 60">
        <path d="M 40 20 q -8 22 -14 22 a 10 10 0 0 1 0 -20 c 10 0 10 20 20 20" class="noFill" stroke-width="3" />
    </symbol>
    <symbol id="animismus_triangle" width="60" height="60" viewBox="0 0 60 60">
         <path d="M 30 10 l -12.99 22.5 h 25.98 z" class="noFill" stroke-width="3" />
    </symbol>
    <symbol id="antimony_symbol" width="60" height="60" viewBox="0 0 60 60">
        <path d="M 15 35 l 10 15 h 10 l 10 -15 z M 15 30 h 30 M 30 50 v -25 a 10 7.5 0 0 0 0 -15 10 7.5 0 0 0 0 15" class="noFill" stroke-width="3" />
    </symbol>
    <symbol id="arsenic_symbol" width="60" height="60" viewBox="0 0 60 60">
        <path d="M 30 25.76 l -14 24.24 h 28 z M 30 23.08 a 10 10 0 0 0 -20 0 10 10 0 0 0 20 0 10 10 0 0 0 20 0 10 10 0 0 0 -20 0" class="noFill" stroke-width="3" />
    </symbol>
    <symbol id="beryl_symbol" width="60" height="60" viewBox="0 0 60 60">
        <use href="#fire_symbol" />
        <path d="M 30 12.68 v 23.09 l -20 11.55 m 20 -11.55 l 20 11.55" class="noFill" stroke-width="3" />
    </symbol>
    <symbol id="beta_symbol" width="60" height="60" viewBox="0 0 60 60">
        <path d="M 24 50 v -30 q 0 -10 5 -10 a 7 7 0 0 1 0 14 7 7 0 0 1 0 14" class="noFill" stroke-width="3" />
    </symbol>
    <symbol id="bismuth_symbol" width="60" height="60" viewBox="0 0 60 60">
        <path d="M 43 10 a 13 13 0 0 1 -26 0 M 30 50 a 13.5 13.5 0 0 0 0 -27 13.5 13.5 0 0 0 0 27" class="noFill" stroke-width="3" />
    </symbol>
    <symbol id="carbonic_symbol" width="60" height="60" viewBox="0 0 60 60">
        <path d="M 16 25 a 14 14 0 0 0 28 0 14 14 0 0 0 -28 0 M 20 35 c -2.52 2.15 -5.77 5.14 -3.37 7.94 M 40 35 c 2.52 2.15 5.77 5.14 3.37 7.94 M 30 39 v 11" class="noFill" stroke-width="3" />
    </symbol>
    <symbol id="cobalt_symbol" width="60" height="60" viewBox="0 0 60 60">
        <use href="#bismuth_symbol" transform="rotate(180, 30, 30)" />
    </symbol>
    <symbol id="copper_symbol" width="60" height="60" viewBox="0 0 60 60">
        <path d="M 30 32.5 a 10 10 0 0 0 0 -20 10 10 0 0 0 0 20 v 15 M 22 39 h 16" class="noFill" stroke-width="3" />
    </symbol>
    <symbol id="earth_symbol" width="60" height="60" viewBox="0 0 60 60">
        <use href="#air_symbol" transform="rotate(180, 30, 30)" />
    </symbol>
    <symbol id="fire_symbol" width="60" height="60" viewBox="0 0 60 60">
        <path d="M 30 12.68 l -20 34.64 h 40 z" class="noFill" stroke-width="3" />
    </symbol>
    <symbol id="gamma_symbol" width="60" height="60" viewBox="0 0 60 60">
        <path d="M 22.5 20 c 20 40 -5 40 15 0" class="noFill" stroke-width="3" />
    </symbol>
    <symbol id="gold_symbol" width="60" height="60" viewBox="0 0 60 60">
        <circle cx="30" cy="30" r="20" class="noFill" stroke-width="3" />
        <circle cx="30" cy="30" r="1" class="strokeFill" stroke-width="3" />
    </symbol>
    <symbol id="grey_mors_symbol" width="60" height="60" viewBox="0 0 60 60">
        <use href="#red_vitae_symbol" transform="rotate(180, 30, 30)" />
    </symbol>
    <symbol id="ignistal_symbol" width="60" height="60" viewBox="0 0 60 60">
        <path d="M 30 10 a 20 20 90 0 1 -20 20 20 20 90 0 1 20 20 20 20 90 0 1 20 -20 20 20 90 0 1 -20 -20" class="noFill" stroke-width="3" />
    </symbol>
    <symbol id="iron_symbol" width="60" height="60" viewBox="0 0 60 60">
        <path d="M 15 35 a 10 10 0 0 0 20 0 10 10 0 0 0 -20 0 M 32.07 27.93 l 12.93 -12.93 M 35 15 h 10 v 10" class="noFill" stroke-width="3" />
    </symbol>
    <symbol id="lead_symbol" width="60" height="60" viewBox="0 0 60 60">
        <path d="M 38.34 50 q -4 -6 0 -10 c 7 -8 -3 -30 -14.49 -10 M 28.84 16 h -10 M 23.84 50 v -40" class="noFill" stroke-width="3" />
    </symbol>
    <symbol id="lithium_symbol" width="60" height="60" viewBox="0 0 60 60">
        <path d="M 50 30 l -10 -20 h -20 l -10 20 z M 30 10 v 40" class="noFill" stroke-width="3" />
    </symbol>
    <symbol id="mistaline_symbol" width="60" height="60" viewBox="0 0 60 60">
        <use href="#water_symbol" />
        <path d="M 10,45 a 20 20 0 0 1 40,0" class="noFill" stroke-width="3" />
    </symbol>
    <symbol id="mors_symbol" width="60" height="60" viewBox="0 0 60 60">
        <use href="#vitae_symbol" transform="rotate(180, 30, 30)" />
    </symbol>
    <symbol id="nickel_symbol" width="60" height="60" viewBox="0 0 60 60">
        <path d="M 30 25 a 7.5 7.5 0 0 0 0 -15 7.5 7.5 0 0 0 0 15 v 10 a 7.5 7.5 0 0 0 0 15 7.5 7.5 0 0 0 0 -15" class="noFill" stroke-width="3" />
    </symbol>
    <symbol id="nobilis_symbol" width="60" height="60" viewBox="0 0 60 60">
        <circle cx="30" cy="30" r="12" class="noFill" stroke-width="3" />
        <circle cx="30" cy="15" r="3" class="noFill" stroke-width="3" />
        <circle cx="17.01" cy="37.5" r="3" class="noFill" stroke-width="3" />
        <circle cx="42.99" cy="37.5" r="3" class="noFill" stroke-width="3" />
    </symbol>
    <symbol id="osmium_symbol" width="60" height="60" viewBox="0 0 60 60">
        <path d="M 30 6.91 l -20 11.55 v 23.09 l 20 11.55 20 -11.55 v -23.09 z M 10 18.46 l 20 11.55 20 -11.55 M 30 30.01 v 23.09" class="noFill" stroke-width="3" />
    </symbol>
    <symbol id="platinum_symbol" width="60" height="60" viewBox="0 0 60 60">
        <path d="M 12.93 22.93 a 10 10 90 1 1 0 14.14 M 23.03 20.51 V 39.49 M 30 30 a 10 10 0 0 0 20 0 10 10 0 0 0 -20 0" class="noFill" stroke-width="3" />
        <circle cx="40" cy="30" r="1" class="strokeFill" stroke-width="3" />
    </symbol>
    <symbol id="potassium_symbol" width="60" height="60" viewBox="0 0 60 60">
        <use href="#lithium_symbol" transform="rotate(180, 30, 30)" />
    </symbol>
    <symbol id="pyrolite_symbol" width="60" height="60" viewBox="0 0 60 60">
        <use href="#fire_symbol" />
        <path d="M 10 25 l 20 10 20 -10" class="noFill" stroke-width="3" />
    </symbol>
    <symbol id="quickcopper_symbol" width="60" height="60" viewBox="0 0 60 60">
        <path d="M 30 50 v -15 a 10 10 0 1 1 7.07 -17.07 l -7 -7 M 23.07 44.37 l 13.86 -5.74" class="noFill" stroke-width="3" />
    </symbol>
    <symbol id="quicklime_symbol" width="60" height="60" viewBox="0 0 60 60">
        <path d="M 30 50 v -15 m -10 -10 a 10 10 0 0 0 20 0 M 24.7 46.80 l 10.61 -10.61" class="noFill" stroke-width="3" />
    </symbol>
    <symbol id="quicksilver_symbol" width="60" height="60" viewBox="0 0 60 60">
        <use href="#copper_symbol" transform="translate(0, 2.25)"/>
        <path d="M 35 10 a 5 5 0 0 1 -10 0" class="noFill" stroke-width="3" />
    </symbol>
    <symbol id="quintessence_symbol" width="60" height="60" viewBox="0 0 60 60">
        <path d="M 30 10 l -17.32 30 h 34.64 z M 24.23 20 h -11.55 l 5.77 10 M 35.77 20 h 11.55 l -5.77 10 M 24.23 40 l 5.77 10 5.77 -10" class="noFill" stroke-width="3" />
    </symbol>
    <symbol id="red_vitae_symbol" width="60" height="60" viewBox="0 0 60 60">
        <use href="#animismus_triangle" />
        <path d="M25 32.5v17.5M35 32.5v17.5" class="noFill" stroke-width="3" />
    </symbol>
    <symbol id="salt_symbol" width="60" height="60" viewBox="0 0 60 60">
        <path d="M 12 30 a 18 20 0 0 0 36 0 18 20 0 0 0 -36 0 h 36" class="noFill" stroke-width="3" />
    </symbol>
    <symbol id="sednum_symbol" width="60" height="60" viewBox="0 0 60 60">
        <path d="M 22.5 20 a 5 5 0 0 0 -10 0 5 5 0 0 0 10 0 h 5 M 27.5 10 v 20 a 20 20 0 0 1 20 20" class="noFill" stroke-width="3" />
    </symbol>
    <symbol id="silver_symbol" width="60" height="60" viewBox="0 0 60 60">
        <path d="M 15.86 15.86 a 20 20 0 1 1 0 28.28 M 44.14 15.86 v 28.28" class="noFill" stroke-width="3" />
    </symbol>
    <symbol id="terramarine_symbol" width="60" height="60" viewBox="0 0 60 60">
        <path d="M 12 40 c 14 -8 22 8 36 0 m -25.1 -2.1 l -8.2 -19.9 m 15.3 22 l 0 -25 m 5.5 26.8 l 9.8 -23.7" class="noFill" stroke-width="3" />
    </symbol>
    <symbol id="tin_symbol" width="60" height="60" viewBox="0 0 60 60">
        <path d="M 35 10 v 40 M 45 35 h -30 c 18.6 -10.4 11.26 -24.59 0.9 -17.25" class="noFill" stroke-width="3"/>
    </symbol>
    <symbol id="true_mors_symbol" width="60" height="60" viewBox="0 0 60 60">
        <use href="#true_vitae_symbol" transform="rotate(180, 30, 30)"/>
    </symbol>
    <symbol id="true_vitae_symbol" width="60" height="60" viewBox="0 0 60 60">
        <use href="#animismus_triangle"/>
        <path d="M 25 32.5 l 10 17.5 M 35 32.5 l -10 17.5" class="noFill" stroke-width="3"/>
    </symbol>
    <symbol id="uranium_symbol" width="60" height="60" viewBox="0 0 60 60">
        <path d="M 30 30 a 10 10 0 0 1 0 20 10 10 0 0 1 0 -20 l 0 -20 M 25 17 l 10 0 M 18 10 a 7 7 0 0 1 0 14 M 42 10 a 7 7 0 0 0 0 14" class="noFill" stroke-width="3"/>
    </symbol>
    <symbol id="vaca_star" width="4" height="4" viewBox="0 0 60 60">
        <line x1="4" y1="0" x2="4" y2="8" stroke-width="2"/>
        <line x1="0" y1="4" x2="8" y2="4" stroke-width="2"/>
    </symbol>        
    <symbol id="vaca_symbol" width="60" height="60" viewBox="0 0 60 60">
        <use href="#vaca_star" transform="translate(40, 15)"/>
        <use href="#vaca_star" transform="translate(10, 26)"/>
        <use href="#vaca_star" transform="translate(20, 36)"/>
        <use href="#vaca_star" transform="translate(30, 46)"/>
    </symbol>
    <symbol id="vaprorine_symbol" width="60" height="60" viewBox="0 0 60 60">
        <path d="M 30 50 l 20 -20 -20 -20 -20 20 16 16 16 -16 -12 -12 -12 12 8 8 8 -8 -4 -4 -4 4" class="noFill" stroke-width="3" stroke-linecap="square" />
    </symbol>
    <symbol id="vitae_symbol" width="60" height="60" viewBox="0 0 60 60">
        <use href="#animismus_triangle"/>
        <path d="M 30 32.5 v 17.5 M 23 41.25 h 14" class="noFill" stroke-width="3"/>
    </symbol>
    <symbol id="vulcan_symbol" width="60" height="60" viewBox="0 0 60 60">
        <path d="M 10 44.29 l 5.71 5.71 14.86 -14.86 -5.71 -5.71 z m 14.86 -14.86 l -8 -8 11.43 -11.43 8 8 3.43 -3.43 5.71 5.71 -3.43 3.43 -5.71 -5.71 m 5.71 5.71 l 8 8 -11.43 11.43 -8 -8" class="noFill" stroke-width="3"/>
    </symbol>
    <symbol id="water_symbol" width="60" height="60" viewBox="0 0 60 60">
        <use href="#fire_symbol" transform="rotate(180, 30, 30)"/>
    </symbol>
    <symbol id="wolfram_symbol" width="60" height="60" viewBox="0 0 60 60">
        <path d="M 21.29 25 q -10 15 5 20 l 5 -10 5 10 q 15 -10 -5 -30" class="noFill" stroke-width="3"/>
    </symbol>
    <symbol id="zinc_symbol" width="60" height="60" viewBox="0 0 60 60">
        <path d="M 17.5 20 l 22.5 22.5 h -22.5 l 25 -25 M 32.5 17.5 h 10 v 10" class="noFill" stroke-width="3"/>
    </symbol>
</svg>